<svg xmlns="http://www.w3.org/2000/svg" xmlns:xlink="http://www.w3.org/1999/xlink" width="67.831" height="61.044" viewBox="0 0 67.831 61.044">
  <defs>
    <linearGradient id="linear-gradient" x1="0.18" y1="0.05" x2="0.91" y2="0.9" gradientUnits="objectBoundingBox">
      <stop offset="0" stop-color="#f7e584"/>
      <stop offset="1" stop-color="#4deeec"/>
    </linearGradient>
  </defs>
  <path id="Union_5" data-name="Union 5" d="M-15714,74.591c0-8.3,11.484-10.376,24.928-10.376,13.516,0,24.925,2.149,24.925,10.455s-11.484,10.376-24.925,10.376C-15702.592,85.046-15714,82.9-15714,74.591Zm56.415,1.613c1.151-10.553-8.029-15.558-10.4-16.709a.178.178,0,0,1-.114-.185.148.148,0,0,1,.127-.095,62.4,62.4,0,0,1,12.71,1.081c4.326.832,7.17,2.516,8.349,4.977a7.148,7.148,0,0,1,0,6.369c-1.8,3.81-7.615,5.036-9.875,5.352a.731.731,0,0,1-.1.007A.7.7,0,0,1-15657.586,76.2Zm-47.983-36.053a16.27,16.27,0,0,1,16.5-16.149,16.267,16.267,0,0,1,16.493,16.149,16.268,16.268,0,0,1-16.493,16.153A16.271,16.271,0,0,1-15705.569,40.151Zm38.1,13.767a13.673,13.673,0,0,1-1.9-.174.6.6,0,0,1-.414-.935,21.584,21.584,0,0,0,3.856-12.363,21.748,21.748,0,0,0-4.184-12.864.375.375,0,0,1-.063-.418.482.482,0,0,1,.323-.189,13.892,13.892,0,0,1,2.772-.276,13.717,13.717,0,0,1,13.421,17.214,13.7,13.7,0,0,1-13.432,10.01C-15667.22,53.923-15667.347,53.921-15667.473,53.918Z" transform="translate(15714.001 -24.001)" fill="url(#linear-gradient)"/>
</svg>
