<svg xmlns="http://www.w3.org/2000/svg" width="51.561" height="60" viewBox="0 0 51.561 60">
  <g id="Group_881" data-name="Group 881" transform="translate(-469 -1401)">
    <path id="Path_1012" data-name="Path 1012" d="M36.02,0H72.271V60H36.02V0M52.657,15.82A8.084,8.084,0,0,0,48.629,29.8a10.876,10.876,0,0,0-5.22,7.8c-.19,1.595-.069,3.206-.1,4.809q10.721.014,21.441,0c0-1.369.034-2.738-.028-4.1a10.756,10.756,0,0,0-5.282-8.487,8.1,8.1,0,0,0-6.78-14.007Z" transform="translate(432.98 1401)" fill="#623b82"/>
    <path id="Path_1013" data-name="Path 1013" d="M375.351,0h4.977a7.768,7.768,0,0,1,6.794,7.137c.038,3.492.021,6.987.009,10.48-3.925,0-7.849,0-11.774,0C375.342,11.742,375.356,5.871,375.351,0Z" transform="translate(133.416 1401)" fill="#623b82"/>
    <path id="Path_1014" data-name="Path 1014" d="M154.633,164.025a4.567,4.567,0,1,1-3.9,3.928A4.579,4.579,0,0,1,154.633,164.025Z" transform="translate(331.747 1256.24)" fill="#623b82"/>
    <path id="Path_1015" data-name="Path 1015" d="M375.354,180.328c3.927-.011,7.855,0,11.782,0q.018,8.866,0,17.735c-3.927,0-7.855,0-11.782,0Q375.346,189.191,375.354,180.328Z" transform="translate(133.416 1241.809)" fill="#623b82"/>
    <path id="Path_1016" data-name="Path 1016" d="M128.19,278.985a7.206,7.206,0,0,1,14.408,0C137.795,278.993,132.992,279,128.19,278.985Z" transform="translate(351.612 1160.913)" fill="#623b82"/>
    <path id="Path_1017" data-name="Path 1017" d="M375.358,361.666c3.925-.008,7.849,0,11.774,0,.012,3.493.028,6.988-.009,10.48a7.774,7.774,0,0,1-6.779,7.137h-4.992C375.356,373.409,375.342,367.538,375.358,361.666Z" transform="translate(133.416 1081.72)" fill="#623b82"/>
  </g>
</svg>
