<svg xmlns="http://www.w3.org/2000/svg" xmlns:xlink="http://www.w3.org/1999/xlink" width="54.795" height="66" viewBox="0 0 54.795 66">
  <defs>
    <linearGradient id="linear-gradient" x1="0.254" y1="0.276" x2="1" y2="1.106" gradientUnits="objectBoundingBox">
      <stop offset="0" stop-color="#22b0ff"/>
      <stop offset="1" stop-color="#f7e584"/>
    </linearGradient>
  </defs>
  <path id="Union_8" data-name="Union 8" d="M-18379.256,90a6.353,6.353,0,0,1-5.654-5.794q-.888-17.864-1.742-35.719a.665.665,0,0,1,.723-.765q23.306-.006,46.609,0a.667.667,0,0,1,.721.765q-.864,17.858-1.744,35.719a6.343,6.343,0,0,1-5.623,5.794Zm16.146-39.132a2.091,2.091,0,0,0-1.623,2.132c.027,9.016-.043,18.039.035,27.055.289,2.19,3.855,2.2,4.141,0,.08-9.016.014-18.039.035-27.055a2.128,2.128,0,0,0-2.1-2.2A1.857,1.857,0,0,0-18363.109,50.867Zm-10.527,0A2.1,2.1,0,0,0-18375.26,53c.023,9.016-.045,18.039.035,27.055.293,2.19,3.855,2.2,4.141,0,.084-9.016.014-18.035.039-27.055a2.133,2.133,0,0,0-2.1-2.2A1.85,1.85,0,0,0-18373.637,50.867Zm21.055,0a2.1,2.1,0,0,0-1.623,2.136c.027,9.02-.043,18.039.035,27.055.289,2.19,3.855,2.194,4.146,0,.074-9.016.008-18.039.029-27.055a2.132,2.132,0,0,0-2.1-2.2A1.849,1.849,0,0,0-18352.582,50.863Zm-37.41-9.316c0-1.511-.029-3.026.016-4.537a5.232,5.232,0,0,1,4.965-4.748c2.1-.02,4.2-.016,6.295-.016q2.777.006,5.559,0c-.672-3.678,1.57-7.817,5.6-8.243h9.824c4.057.387,6.32,4.557,5.645,8.243q3.064.012,6.137,0,2.783,0,5.58.008a5.324,5.324,0,0,1,5.123,5.927c-.176,1.812.775,4.807-1.732,5.377-10.482.051-20.961.039-31.443.035q-9.671-.012-19.348,0-.062,0-.129,0A2.109,2.109,0,0,1-18389.992,41.547Zm22.672-13.369c-1.9.433-1.678,2.6-1.615,4.069q6.311.012,12.621,0c.066-1.468.287-3.643-1.619-4.069q-2.335-.067-4.693-.067C-18364.193,28.11-18365.762,28.133-18367.32,28.177Z" transform="translate(18390 -23.999)" fill="url(#linear-gradient)"/>
</svg>
