<svg xmlns="http://www.w3.org/2000/svg" width="60.49" height="60.414" viewBox="0 0 60.49 60.414">
  <path id="Union_7" data-name="Union 7" d="M-17059.609,83.411a2.516,2.516,0,0,1-1.395-1.384v-.954c1.877-6.854,3.447-13.807,5.242-20.693a2.345,2.345,0,0,1,.688-.949c15.35-15.326,6.434-6.486,21.807-21.776q9.053,8.944,18.008,18.007c-15.26,15.352-6.4,6.4-21.693,21.73a2.55,2.55,0,0,1-1.16.809c-6.883,1.773-13.814,3.381-20.678,5.211Zm29.162-48.587c2.184-2.209,4.365-4.417,6.588-6.585a9.375,9.375,0,0,1,12.887.69c2.809,3.121,6.92,5.677,7.459,10.209v2.11c-.82,5.159-5.738,7.938-8.916,11.6C-17018.508,47-17024.611,40.905-17030.447,34.823Z" transform="translate(17062.504 -24.497)" fill="#1c1044" stroke="#4deeec" stroke-width="3"/>
</svg>
