<svg xmlns="http://www.w3.org/2000/svg" width="49.872" height="44.885" viewBox="0 0 49.872 44.885">
  <g id="Message" transform="translate(0)">
    <path id="Message-2" data-name="Message" d="M37.253,44.885H12.617A12.619,12.619,0,0,1,0,32.293v-19.7A12.619,12.619,0,0,1,12.617,0H37.253A12.7,12.7,0,0,1,46.18,3.694a12.5,12.5,0,0,1,3.692,8.9v19.7A12.62,12.62,0,0,1,37.253,44.885ZM10.061,13.08a1.828,1.828,0,0,0-1.333.56,1.905,1.905,0,0,0-.177,2.493l.328.323,11.345,8.854a7.8,7.8,0,0,0,4.863,1.694,7.929,7.929,0,0,0,4.884-1.694l11.25-9,.2-.2a1.93,1.93,0,0,0-.029-2.493,2.073,2.073,0,0,0-1.317-.649l-.105,0a1.894,1.894,0,0,0-1.3.5L27.429,22.443a3.9,3.9,0,0,1-2.485.9,3.97,3.97,0,0,1-2.5-.9L11.221,13.466A1.94,1.94,0,0,0,10.061,13.08Z" transform="translate(0)" fill="#4deeec"/>
  </g>
</svg>
