<svg xmlns="http://www.w3.org/2000/svg" width="60.236" height="49.169" viewBox="0 0 60.236 49.169">
  <g id="Group_856" data-name="Group 856" transform="translate(-436.485 -1932.876)">
    <path id="Fill_1" data-name="Fill 1" d="M21.921,0H4.089A4.055,4.055,0,0,0,0,4.017,4.057,4.057,0,0,0,4.089,8.034H21.921A4.057,4.057,0,0,0,26.01,4.017,4.055,4.055,0,0,0,21.921,0" transform="translate(439.485 1965.974)" fill="#74dfd6" stroke="#4deeec" stroke-width="1"/>
    <path id="Fill_4" data-name="Fill 4" d="M26.007,4.014A4.054,4.054,0,0,0,21.921,0H4.089A4.055,4.055,0,0,0,0,4.014,4.055,4.055,0,0,0,4.089,8.031H21.921a4.055,4.055,0,0,0,4.086-4.017" transform="translate(467.716 1941.024)" fill="#74dfd6" stroke="#4deeec" stroke-width="1"/>
    <path id="Fill_6" data-name="Fill 6" d="M18.651,9.162a9.245,9.245,0,0,1-9.326,9.165A9.247,9.247,0,0,1,0,9.162,9.246,9.246,0,0,1,9.326,0a9.244,9.244,0,0,1,9.326,9.162" transform="translate(439.485 1935.876)" fill="#261854" stroke="#4deeec" stroke-width="6"/>
    <path id="Fill_9" data-name="Fill 9" d="M18.651,9.165a9.244,9.244,0,0,1-9.326,9.162A9.246,9.246,0,0,1,0,9.165,9.247,9.247,0,0,1,9.326,0a9.245,9.245,0,0,1,9.326,9.165" transform="translate(475.07 1960.718)" fill="#261854" stroke="#4deeec" stroke-width="6"/>
  </g>
</svg>
