<svg xmlns="http://www.w3.org/2000/svg" width="75.819" height="72.767" viewBox="0 0 75.819 72.767">
  <g id="Group_1" data-name="Group 1" transform="translate(-110.13 -115.64)">
    <path id="Path_3" data-name="Path 3" d="M323.888,178.094a12.967,12.967,0,1,0-.7,6.245c.362-.97.457-2,.826-2.962V178.39C323.873,178.338,323.9,178.207,323.888,178.094Zm-12.93,11.684a9.983,9.983,0,1,1,10.059-9.908A10.025,10.025,0,0,1,310.958,189.778Z" transform="translate(-139.57 -37.177)" fill="#623b82" stroke="#623b82" stroke-width="3"/>
    <path id="Path_4" data-name="Path 4" d="M210.341,263.567v.018c.02,1.113-.51,1.8-1.427,1.831s-1.522-.6-1.563-1.711a11.056,11.056,0,0,0-10.272-10.744,10.618,10.618,0,0,1-1.058-.116,1.459,1.459,0,0,1-1.183-1.4,1.423,1.423,0,0,1,1.11-1.45,7.863,7.863,0,0,1,3.165.2A14.125,14.125,0,0,1,210.341,263.567Z" transform="translate(-63.197 -98.516)" fill="#623b82" stroke="#623b82" stroke-width="3"/>
    <path id="Path_5" data-name="Path 5" d="M134.02,216.7a22.378,22.378,0,1,0,22.393,22.365A22.453,22.453,0,0,0,134.02,216.7Zm-.01,41.749a19.368,19.368,0,1,1,19.4-19.381A19.438,19.438,0,0,1,134.01,258.449Z" transform="translate(0 -74.549)" fill="#623b82" stroke="#623b82" stroke-width="3"/>
    <path id="Path_6" data-name="Path 6" d="M183.481,117.14a8.911,8.911,0,1,0,8.913,8.9A8.936,8.936,0,0,0,183.481,117.14Zm-.025,14.824a5.907,5.907,0,0,1-.03-11.814,5.907,5.907,0,1,1,.03,11.814Z" transform="translate(-47.099)" fill="#623b82" stroke="#623b82" stroke-width="3"/>
  </g>
</svg>
