<svg xmlns="http://www.w3.org/2000/svg" width="49.872" height="58.672" viewBox="0 0 49.872 58.672">
  <g id="Lock" transform="translate(0 0)">
    <path id="Lock-2" data-name="Lock" d="M37.352,58.672H12.523A12.4,12.4,0,0,1,0,46.426V31.942A12.217,12.217,0,0,1,8.734,20.327v-4.5A16.053,16.053,0,0,1,24.892,0a16.357,16.357,0,0,1,11.5,4.635,15.534,15.534,0,0,1,4.748,11.2v4.5a12.217,12.217,0,0,1,8.734,11.615V46.426A12.4,12.4,0,0,1,37.352,58.672ZM24.921,33.4a2.568,2.568,0,0,0-2.593,2.537v6.471a2.608,2.608,0,0,0,5.215,0V35.934A2.583,2.583,0,0,0,24.921,33.4Zm.029-28.3a10.888,10.888,0,0,0-11,10.669V19.7h21.97V15.831A10.864,10.864,0,0,0,24.951,5.1Z" transform="translate(0 0)" fill="#4deeec"/>
  </g>
</svg>
