<svg xmlns="http://www.w3.org/2000/svg" xmlns:xlink="http://www.w3.org/1999/xlink" width="542.096" height="109.033" viewBox="0 0 542.096 109.033">
  <defs>
    <linearGradient id="linear-gradient" y1="0.058" x2="1" y2="0.783" gradientUnits="objectBoundingBox">
      <stop offset="0" stop-color="#27b3fc"/>
      <stop offset="0.605" stop-color="#76e0d3"/>
      <stop offset="1" stop-color="#aafdb9"/>
    </linearGradient>
  </defs>
  <path id="Path_99" data-name="Path 99" d="M82.125,7.044a11.742,11.742,0,0,1-3.583,8.729,11.914,11.914,0,0,1-8.664,3.518,11.425,11.425,0,0,1-8.6-3.518,12.093,12.093,0,0,1-3.387-8.729l-.13-28.011-4.951,4.951a11.836,11.836,0,0,1-8.664,3.648,11.836,11.836,0,0,1-8.664-3.648L30.4-20.967l.13,28.011a12.314,12.314,0,0,1-3.648,8.729,11.7,11.7,0,0,1-8.6,3.518,11.852,11.852,0,0,1-8.729-3.518A11.852,11.852,0,0,1,6.04,7.044V-49.629a29.007,29.007,0,0,0-.651-4.69,13.309,13.309,0,0,1-.326-4.234,4.232,4.232,0,0,1,1.759-3.062q1.563-1.173,5.863-1.173h5.6a11.9,11.9,0,0,1,5.276,1.173,12.734,12.734,0,0,1,4.1,3.127L43.952-42.073q3.257-3.387,6.123-6.319T56.2-54.71a10.8,10.8,0,0,0,1.694-2.541,11.011,11.011,0,0,1,1.759-2.606,8.886,8.886,0,0,1,2.931-2.085,12.739,12.739,0,0,1,5.211-.847h2.085a11.8,11.8,0,0,1,8.664,3.583,11.8,11.8,0,0,1,3.583,8.664Zm73.61,12.768A24.873,24.873,0,0,1,153.911,29a24.289,24.289,0,0,1-4.364,6.905,23.909,23.909,0,0,1-6.058,4.82,37.65,37.65,0,0,1-6.84,3A32.632,32.632,0,0,1,130,45.152a26.519,26.519,0,0,1-5.537.065q-4.3-.391-7.035-.782a15.039,15.039,0,0,1-4.951-1.563,12.481,12.481,0,0,1-4.82-4.364,11.176,11.176,0,0,1-1.954-6.319,10.93,10.93,0,0,1,.912-4.43,12.206,12.206,0,0,1,6.254-6.254,10.931,10.931,0,0,1,4.43-.912,33.782,33.782,0,0,1,4.1.326,43.687,43.687,0,0,0,5.537.326,3.791,3.791,0,0,0,2.8-.977,5.333,5.333,0,0,0,1.368-2.541,31.55,31.55,0,0,1-9.511,1.563,27.858,27.858,0,0,1-11.856-2.475,27.227,27.227,0,0,1-9.12-6.775A31.154,31.154,0,0,1,94.762.009a35.56,35.56,0,0,1-2.085-12.247V-31.65a11.492,11.492,0,0,1,.977-4.69,12.524,12.524,0,0,1,2.606-3.843A12.524,12.524,0,0,1,100.1-42.79a11.492,11.492,0,0,1,4.69-.977,11.491,11.491,0,0,1,4.69.977,12.524,12.524,0,0,1,3.843,2.606,12.524,12.524,0,0,1,2.606,3.843,11.492,11.492,0,0,1,.977,4.69l.261,19.412a7.865,7.865,0,0,0,1.954,5.276,6.239,6.239,0,0,0,4.951,2.28,6.627,6.627,0,0,0,5.081-2.28,7.583,7.583,0,0,0,2.085-5.276L131.5-31.65a11.491,11.491,0,0,1,.977-4.69,12.524,12.524,0,0,1,2.606-3.843,12.524,12.524,0,0,1,3.843-2.606,11.491,11.491,0,0,1,4.69-.977,11.492,11.492,0,0,1,4.69.977,12.524,12.524,0,0,1,3.843,2.606,12.524,12.524,0,0,1,2.606,3.843,11.492,11.492,0,0,1,.977,4.69Zm11.2-69.441a28.826,28.826,0,0,0-.651-4.56,14.619,14.619,0,0,1-.391-4.169,4.239,4.239,0,0,1,1.629-3.062q1.5-1.238,5.407-1.368h27.1a24.314,24.314,0,0,1,9.836,2.019,25.8,25.8,0,0,1,8.012,5.407,25.8,25.8,0,0,1,5.407,8.012,24.314,24.314,0,0,1,2.019,9.836,23.961,23.961,0,0,1-1.107,7.361,22.189,22.189,0,0,1-3.192,6.319,26.619,26.619,0,0,1,4.365,7.361A23.98,23.98,0,0,1,227-7.548,25.75,25.75,0,0,1,224.85,2.94a27.744,27.744,0,0,1-5.8,8.534,26.828,26.828,0,0,1-8.534,5.732,26.442,26.442,0,0,1-10.488,2.085H179.186a11.809,11.809,0,0,1-4.82-.977,12.318,12.318,0,0,1-6.449-6.449,11.809,11.809,0,0,1-.977-4.82Zm24.493,35.7v8.99h.521l8.078-.261a6.312,6.312,0,0,0,2.931-.782q1.5-.782,1.5-3.127a3.921,3.921,0,0,0-1.3-3.257,6.115,6.115,0,0,0-2.736-1.3l-8.468-.261Zm0-26.578v7.687h.521l8.468-.261a3.584,3.584,0,0,0,2.085-.977,2.961,2.961,0,0,0,.912-2.28,3.873,3.873,0,0,0-1.042-2.866,3.24,3.24,0,0,0-2.345-1.042l-8.078-.261ZM300.61,10.952a9.539,9.539,0,0,1-1.824,5.928,6.284,6.284,0,0,1-5.342,2.41A8.569,8.569,0,0,1,288.3,17.4a10.007,10.007,0,0,1-3.453-4.1,29.256,29.256,0,0,1-8.924,4.495,32.16,32.16,0,0,1-9.446,1.5,27.858,27.858,0,0,1-11.856-2.475,27.227,27.227,0,0,1-9.12-6.775A31.154,31.154,0,0,1,239.638.009a35.559,35.559,0,0,1-2.085-12.247V-31.65a11.492,11.492,0,0,1,.977-4.69,12.524,12.524,0,0,1,2.606-3.843,12.524,12.524,0,0,1,3.843-2.606,11.492,11.492,0,0,1,4.69-.977,11.492,11.492,0,0,1,4.69.977,12.524,12.524,0,0,1,3.843,2.606,12.524,12.524,0,0,1,2.606,3.843,11.491,11.491,0,0,1,.977,4.69l.261,19.412A7.866,7.866,0,0,0,264-6.962a6.239,6.239,0,0,0,4.951,2.28,6.627,6.627,0,0,0,5.081-2.28,7.583,7.583,0,0,0,2.085-5.276l.261-19.412a11.491,11.491,0,0,1,.977-4.69,12.524,12.524,0,0,1,2.606-3.843A12.524,12.524,0,0,1,283.8-42.79a11.492,11.492,0,0,1,4.69-.977,11.492,11.492,0,0,1,4.69.977,12.524,12.524,0,0,1,3.843,2.606,12.524,12.524,0,0,1,2.606,3.843,11.491,11.491,0,0,1,.977,4.69v42.6Zm8.468-62.536a11.492,11.492,0,0,1,.977-4.69,12.525,12.525,0,0,1,2.606-3.843,12.524,12.524,0,0,1,3.843-2.606,11.492,11.492,0,0,1,4.69-.977,11.492,11.492,0,0,1,4.69.977,12.524,12.524,0,0,1,3.843,2.606,12.524,12.524,0,0,1,2.606,3.843,11.491,11.491,0,0,1,.977,4.69v11.6a3.953,3.953,0,0,1,1.629-1.5,13.451,13.451,0,0,1,2.671-1.173,30.175,30.175,0,0,1,3-.782,13.218,13.218,0,0,1,2.606-.326,27.858,27.858,0,0,1,11.856,2.475,27.226,27.226,0,0,1,9.12,6.775,31.154,31.154,0,0,1,5.863,10.032,35.561,35.561,0,0,1,2.085,12.247A35.559,35.559,0,0,1,370.051.009a31.154,31.154,0,0,1-5.863,10.032,27.226,27.226,0,0,1-9.12,6.775,27.858,27.858,0,0,1-11.856,2.475,32.16,32.16,0,0,1-9.446-1.5,29.256,29.256,0,0,1-8.924-4.495,10.007,10.007,0,0,1-3.453,4.1,8.569,8.569,0,0,1-5.146,1.889,6.284,6.284,0,0,1-5.342-2.41,9.539,9.539,0,0,1-1.824-5.928Zm38.564,39.346a7.865,7.865,0,0,0-1.954-5.276,6.239,6.239,0,0,0-4.951-2.28,6.627,6.627,0,0,0-5.081,2.28,7.583,7.583,0,0,0-2.085,5.276,7.583,7.583,0,0,0,2.085,5.276,6.627,6.627,0,0,0,5.081,2.28,6.239,6.239,0,0,0,4.951-2.28A7.865,7.865,0,0,0,347.643-12.238Zm31.789-39.346a11.491,11.491,0,0,1,.977-4.69,12.525,12.525,0,0,1,2.606-3.843,12.524,12.524,0,0,1,3.843-2.606,11.491,11.491,0,0,1,4.69-.977,11.492,11.492,0,0,1,4.69.977,12.524,12.524,0,0,1,3.843,2.606,12.524,12.524,0,0,1,2.606,3.843,11.491,11.491,0,0,1,.977,4.69v11.6a3.953,3.953,0,0,1,1.629-1.5,13.451,13.451,0,0,1,2.671-1.173,30.178,30.178,0,0,1,3-.782,13.218,13.218,0,0,1,2.606-.326,27.858,27.858,0,0,1,11.856,2.475,27.226,27.226,0,0,1,9.12,6.775A31.154,31.154,0,0,1,440.4-24.485a35.561,35.561,0,0,1,2.085,12.247A35.559,35.559,0,0,1,440.4.009a31.154,31.154,0,0,1-5.863,10.032,27.226,27.226,0,0,1-9.12,6.775,27.858,27.858,0,0,1-11.856,2.475,32.16,32.16,0,0,1-9.446-1.5A29.257,29.257,0,0,1,395.2,13.3a10.006,10.006,0,0,1-3.452,4.1,8.569,8.569,0,0,1-5.146,1.889,6.284,6.284,0,0,1-5.342-2.41,9.539,9.539,0,0,1-1.824-5.928ZM418-12.238a7.865,7.865,0,0,0-1.954-5.276,6.239,6.239,0,0,0-4.951-2.28,6.627,6.627,0,0,0-5.081,2.28,7.583,7.583,0,0,0-2.085,5.276,7.583,7.583,0,0,0,2.085,5.276,6.627,6.627,0,0,0,5.081,2.28,6.239,6.239,0,0,0,4.951-2.28A7.865,7.865,0,0,0,418-12.238Zm33.092-39.215a11.914,11.914,0,0,1,3.518-8.664,11.742,11.742,0,0,1,8.729-3.583,11.951,11.951,0,0,1,4.755.977A12.322,12.322,0,0,1,472-60.117a12.321,12.321,0,0,1,2.606,3.909,11.95,11.95,0,0,1,.977,4.755v58.5A11.742,11.742,0,0,1,472,15.773a12.215,12.215,0,0,1-20.91-8.729Zm96.019,37.912a8.024,8.024,0,0,1-.782,3.387,8.593,8.593,0,0,1-2.215,2.931A12.137,12.137,0,0,1,540.788-5.2a10.291,10.291,0,0,1-3.974.782q-3.518.13-6.579.065l-6.123-.13q-3.062-.065-6.384-.13t-7.361-.065a4.645,4.645,0,0,0,1.824,2.41,6.553,6.553,0,0,0,3.387.717,9.726,9.726,0,0,0,2.606-.326q1.173-.326,2.41-.717t2.606-.717a13.886,13.886,0,0,1,3.192-.326,11.5,11.5,0,0,1,7.752,2.866,9.211,9.211,0,0,1,3.322,7.3,9.362,9.362,0,0,1-1.889,5.6,12.381,12.381,0,0,1-4.495,3.909,26.668,26.668,0,0,1-7.426,2.475,43.807,43.807,0,0,1-8.078.782,30.559,30.559,0,0,1-12.247-2.475A31.956,31.956,0,0,1,493.3,10.04,31.955,31.955,0,0,1,486.525.009a30.559,30.559,0,0,1-2.475-12.247,30.559,30.559,0,0,1,2.475-12.247A31.955,31.955,0,0,1,493.3-34.517a31.956,31.956,0,0,1,10.032-6.775,30.559,30.559,0,0,1,12.247-2.475,32.83,32.83,0,0,1,12.247,2.28,31.486,31.486,0,0,1,10.032,6.319,29.515,29.515,0,0,1,6.775,9.576A29.188,29.188,0,0,1,547.106-13.541ZM515.578-23.573a5.619,5.619,0,0,0-3.192.912,4.06,4.06,0,0,0-1.759,2.345h9.9a3.451,3.451,0,0,0-1.759-2.345A6.037,6.037,0,0,0,515.578-23.573Z" transform="translate(-5.01 63.7)" fill="url(#linear-gradient)"/>
</svg>
