<svg xmlns="http://www.w3.org/2000/svg" width="71.176" height="64.157" viewBox="0 0 71.176 64.157">
  <path id="Subtraction_1" data-name="Subtraction 1" d="M65.639,87.158h-41.1A14.487,14.487,0,0,1,10,72.754V63.367a2.623,2.623,0,0,1,2.632-2.608,5.207,5.207,0,0,0,5.224-5.177A4.949,4.949,0,0,0,12.631,50.7a2.659,2.659,0,0,1-1.859-.761A2.579,2.579,0,0,1,10,48.1l0-9.7A14.485,14.485,0,0,1,24.54,24H65.635A14.485,14.485,0,0,1,80.172,38.4l0,9.394A2.579,2.579,0,0,1,79.4,49.64a2.66,2.66,0,0,1-1.859.761,5.179,5.179,0,1,0,0,10.357,2.623,2.623,0,0,1,2.632,2.608v9.387A14.487,14.487,0,0,1,65.639,87.158ZM45.085,39.436a3.181,3.181,0,0,0-2.857,1.775l-3.141,6.365L32.08,48.6A3.186,3.186,0,0,0,30.3,54.035l5.08,4.947-1.2,6.994a3.173,3.173,0,0,0,4.62,3.361l6.282-3.3,6.27,3.3a3.2,3.2,0,0,0,1.5.378,3.127,3.127,0,0,0,1.862-.614,3.161,3.161,0,0,0,1.276-3.119l-1.2-6.994,5.081-4.947A3.184,3.184,0,0,0,58.108,48.6l-7.019-1.026-3.141-6.36a3.174,3.174,0,0,0-2.853-1.779Z" transform="translate(-9.5 -23.5)" fill="#fff" stroke="rgba(0,0,0,0)" stroke-miterlimit="10" stroke-width="1" opacity="0.4"/>
</svg>
