<svg xmlns="http://www.w3.org/2000/svg" width="67.83" height="61.047" viewBox="0 0 67.83 61.047">
  <g id="Group_252" data-name="Group 252" transform="translate(-331 -2254.111)">
    <path id="Fill_1" data-name="Fill 1" d="M24.925,0C11.482,0,0,2.077,0,10.377S11.409,20.832,24.925,20.832c13.443,0,24.925-2.077,24.925-10.377S38.442,0,24.925,0" transform="translate(331 2294.326)" fill="#fff" opacity="0.4"/>
    <path id="Fill_3" data-name="Fill 3" d="M16.493,32.3A16.266,16.266,0,0,0,32.986,16.152,16.266,16.266,0,0,0,16.493,0,16.268,16.268,0,0,0,0,16.152,16.268,16.268,0,0,0,16.493,32.3" transform="translate(339.432 2254.111)" fill="#fff" opacity="0.4"/>
    <path id="Fill_5" data-name="Fill 5" d="M4.289,13.747A21.6,21.6,0,0,1,.433,26.113a.6.6,0,0,0,.415.933,13.457,13.457,0,0,0,1.9.175A13.72,13.72,0,0,0,16.557,17.214,13.718,13.718,0,0,0,3.137,0,14.105,14.105,0,0,0,.363.276.5.5,0,0,0,.041.465.378.378,0,0,0,.1.884,21.752,21.752,0,0,1,4.289,13.747" transform="translate(374.78 2256.809)" fill="#fff" opacity="0.4"/>
    <path id="Fill_7" data-name="Fill 7" d="M21.187,6.067c-1.178-2.46-4.022-4.147-8.349-4.976A62.246,62.246,0,0,0,.128.009.144.144,0,0,0,0,.1.182.182,0,0,0,.115.289C2.491,1.439,11.673,6.444,10.518,17a.7.7,0,0,0,.793.786c2.26-.315,8.074-1.54,9.876-5.349a7.144,7.144,0,0,0,0-6.37" transform="translate(376.893 2289.316)" fill="#fff" opacity="0.4"/>
  </g>
</svg>
